<svg xmlns="http://www.w3.org/2000/svg" xmlns:xlink="http://www.w3.org/1999/xlink" xml:space="preserve" id="Capa_1" x="0" y="0" style="enable-background:new 0 0 615.8 154" version="1.1" viewBox="0 0 615.8 154"><style>.st0{fill:#fff}</style><path d="M11 8h593v140H11z" class="st0"/><path d="M15 12h585v98H15z" style="fill:#003062"/><defs><path id="SVGID_1_" d="M11 8h593v139H11z"/></defs><clipPath id="SVGID_2_"><use xlink:href="#SVGID_1_" style="overflow:visible"/></clipPath><path d="M58 69h2c4 0 10 0 10 6 0 5-5 5-9 5h-3V69zm0-12v-9h2c3 0 7-1 7 4 0 4-3 5-7 5h-2zM38 94h30c11 0 23-4 23-17 0-7-5-12-11-14v-1c5-1 8-7 8-12 0-14-12-17-24-17H38v61z" style="clip-path:url(#SVGID_2_);fill:#fff"/><defs><path id="SVGID_3_" d="M11 8h593v139H11z"/></defs><clipPath id="SVGID_4_"><use xlink:href="#SVGID_3_" style="overflow:visible"/></clipPath><path d="M119 50h2c4 0 7 0 7 5s-4 5-7 5h-2V50zM97 94h22V75l10 19h26l-13-20-4-3v-1c8-3 12-6 12-16 0-15-12-21-26-21H97v61z" style="clip-path:url(#SVGID_4_);fill:#fff"/><path d="M159 33h23v61h-23z" class="st0"/><defs><path id="SVGID_5_" d="M11 8h593v139H11z"/></defs><clipPath id="SVGID_6_"><use xlink:href="#SVGID_5_" style="overflow:visible"/></clipPath><path d="M237 35c-4-2-10-3-15-3-18 0-32 15-32 32 0 18 14 31 31 31 4 0 13 0 16-2l1-23c-4 4-8 6-13 6-7 0-13-5-13-12 1-7 6-12 13-12 5 0 9 3 13 6l-1-23z" style="clip-path:url(#SVGID_6_);fill:#fff"/><defs><path id="SVGID_7_" d="M11 8h593v139H11z"/></defs><clipPath id="SVGID_8_"><use xlink:href="#SVGID_7_" style="overflow:visible"/></clipPath><path d="M278 52c7 0 11 6 11 12 1 7-4 12-11 12s-12-5-12-12c0-6 5-12 12-12m0-20c-19 0-34 13-34 32s15 31 34 31 34-12 34-31-15-32-34-32" style="clip-path:url(#SVGID_8_);fill:#fff"/><defs><path id="SVGID_9_" d="M11 8h593v139H11z"/></defs><clipPath id="SVGID_10_"><use xlink:href="#SVGID_9_" style="overflow:visible"/></clipPath><path d="M496 50h1c4 0 7 0 7 5s-3 5-7 5h-2l1-10zm-22 44h22V75l10 19h26l-14-20-4-3v-1c9-3 12-6 12-16 0-15-11-21-25-21h-28v61h1z" style="clip-path:url(#SVGID_10_);fill:#fff"/><path d="m530 53 13-1v42h22V52l13 1V33h-48z" class="st0"/><defs><path id="SVGID_11_" d="M11 8h593v139H11z"/></defs><clipPath id="SVGID_12_"><use xlink:href="#SVGID_11_" style="overflow:visible"/></clipPath><path d="M426 87h17l2 7h24l-22-61h-25l-21 61h24l1-7zm4-15 4-19h1l4 19h-9z" style="clip-path:url(#SVGID_12_);fill:#fff"/><defs><path id="SVGID_13_" d="M11 8h593v139H11z"/></defs><clipPath id="SVGID_14_"><use xlink:href="#SVGID_13_" style="overflow:visible"/></clipPath><path d="m315 94 10-61 31 31 32-31 10 61h-22l-3-22-17 15-17-15-3 22h-21z" style="clip-path:url(#SVGID_14_);fill:#fff"/><path d="M326 27h60l-30 29zM15 110h585v32H15z" style="fill:#ec6608"/><defs><path id="SVGID_15_" d="M11 8h593v139H11z"/></defs><clipPath id="SVGID_16_"><use xlink:href="#SVGID_15_" style="overflow:visible"/></clipPath></svg>